<svg width="20" height="20" viewBox="0 0 20 20" fill="none" xmlns="http://www.w3.org/2000/svg">
<path d="M2.72988e-09 4.375C2.72988e-09 3.87772 0.197544 3.40081 0.549175 3.04917C0.900805 2.69754 1.37772 2.5 1.875 2.5H13.125C13.6223 2.5 14.0992 2.69754 14.4508 3.04917C14.8025 3.40081 15 3.87772 15 4.375V6.25H16.275C16.5559 6.25025 16.8332 6.31362 17.0863 6.43543C17.3395 6.55724 17.562 6.73438 17.7375 6.95375L19.5887 9.26625C19.8551 9.59898 20.0002 10.0125 20 10.4387V13.125C20 13.6223 19.8025 14.0992 19.4508 14.4508C19.0992 14.8025 18.6223 15 18.125 15H17.5C17.5 15.663 17.2366 16.2989 16.7678 16.7678C16.2989 17.2366 15.663 17.5 15 17.5C14.337 17.5 13.7011 17.2366 13.2322 16.7678C12.7634 16.2989 12.5 15.663 12.5 15H6.25C6.25072 15.3332 6.18481 15.6632 6.05615 15.9706C5.92749 16.278 5.73868 16.5566 5.50081 16.79C5.26294 17.0233 4.98082 17.2068 4.67102 17.3296C4.36123 17.4523 4.03002 17.5119 3.69687 17.5048C3.36371 17.4977 3.03533 17.4241 2.73104 17.2883C2.42674 17.1525 2.15267 16.9572 1.92494 16.7139C1.6972 16.4707 1.5204 16.1843 1.40492 15.8717C1.28944 15.5592 1.23762 15.2266 1.2525 14.8937C0.88631 14.7649 0.569154 14.5255 0.344805 14.2087C0.120457 13.8919 -2.09399e-05 13.5132 2.72988e-09 13.125L2.72988e-09 4.375ZM1.6175 13.695C1.84374 13.3253 2.16221 13.0208 2.54166 12.8113C2.92111 12.6018 3.3485 12.4946 3.78189 12.5001C4.21529 12.5057 4.6398 12.6238 5.01376 12.8429C5.38772 13.0621 5.6983 13.3746 5.915 13.75H12.835C13.0544 13.37 13.37 13.0544 13.75 12.835V4.375C13.75 4.20924 13.6842 4.05027 13.5669 3.93306C13.4497 3.81585 13.2908 3.75 13.125 3.75H1.875C1.70924 3.75 1.55027 3.81585 1.43306 3.93306C1.31585 4.05027 1.25 4.20924 1.25 4.375V13.125C1.2499 13.2453 1.28452 13.3631 1.34971 13.4642C1.4149 13.5653 1.50788 13.6454 1.6175 13.695ZM15 12.5C15.4388 12.5 15.8699 12.6155 16.25 12.835C16.63 13.0544 16.9456 13.37 17.165 13.75H18.125C18.2908 13.75 18.4497 13.6842 18.5669 13.5669C18.6842 13.4497 18.75 13.2908 18.75 13.125V10.4375C18.7497 10.2957 18.7013 10.1581 18.6125 10.0475L16.7625 7.735C16.704 7.6618 16.6299 7.60268 16.5455 7.562C16.4611 7.52132 16.3687 7.50013 16.275 7.5H15V12.5ZM3.75 13.75C3.41848 13.75 3.10054 13.8817 2.86612 14.1161C2.6317 14.3505 2.5 14.6685 2.5 15C2.5 15.3315 2.6317 15.6495 2.86612 15.8839C3.10054 16.1183 3.41848 16.25 3.75 16.25C4.08152 16.25 4.39946 16.1183 4.63388 15.8839C4.8683 15.6495 5 15.3315 5 15C5 14.6685 4.8683 14.3505 4.63388 14.1161C4.39946 13.8817 4.08152 13.75 3.75 13.75ZM15 13.75C14.6685 13.75 14.3505 13.8817 14.1161 14.1161C13.8817 14.3505 13.75 14.6685 13.75 15C13.75 15.3315 13.8817 15.6495 14.1161 15.8839C14.3505 16.1183 14.6685 16.25 15 16.25C15.3315 16.25 15.6495 16.1183 15.8839 15.8839C16.1183 15.6495 16.25 15.3315 16.25 15C16.25 14.6685 16.1183 14.3505 15.8839 14.1161C15.6495 13.8817 15.3315 13.75 15 13.75Z" fill="#262626"/>
<path d="M7.04492 9.12793H5.98242V7.7417H7.04492V9.12793ZM9.73022 9.12793H8.67188V7.7417H9.73022V9.12793ZM11.3198 9.63843H4.43018V8.79175H11.3198V9.63843ZM7.86255 10.0286C8.4104 10.0286 8.88078 10.0811 9.27368 10.1863C9.66659 10.2914 9.96818 10.4464 10.1785 10.6511C10.3888 10.8531 10.4939 11.0994 10.4939 11.3899C10.4939 11.6832 10.3888 11.9308 10.1785 12.1328C9.96818 12.3376 9.66659 12.4925 9.27368 12.5977C8.88078 12.7028 8.4104 12.7554 7.86255 12.7554C7.30916 12.7554 6.83464 12.7028 6.43896 12.5977C6.04329 12.4925 5.74032 12.3376 5.53003 12.1328C5.31974 11.9308 5.2146 11.6832 5.2146 11.3899C5.2146 11.0994 5.31974 10.8531 5.53003 10.6511C5.74032 10.4464 6.04329 10.2914 6.43896 10.1863C6.8374 10.0811 7.31193 10.0286 7.86255 10.0286ZM7.86255 10.8296C7.51115 10.8296 7.21924 10.8503 6.98682 10.8918C6.75716 10.9306 6.58423 10.9928 6.46802 11.0786C6.35181 11.1616 6.2937 11.2654 6.2937 11.3899C6.2937 11.5144 6.35181 11.6209 6.46802 11.7095C6.58423 11.7952 6.75854 11.8603 6.99097 11.9045C7.22339 11.946 7.51392 11.9668 7.86255 11.9668C8.20565 11.9668 8.49341 11.946 8.72583 11.9045C8.96102 11.8603 9.13672 11.7952 9.25293 11.7095C9.36914 11.6209 9.42725 11.5144 9.42725 11.3899C9.42725 11.2654 9.36914 11.1616 9.25293 11.0786C9.13672 10.9928 8.9624 10.9306 8.72998 10.8918C8.50033 10.8503 8.21118 10.8296 7.86255 10.8296ZM7.87085 5.31787C8.427 5.31787 8.91121 5.37598 9.32349 5.49219C9.73576 5.6084 10.054 5.7758 10.2781 5.99438C10.5022 6.21297 10.6143 6.47306 10.6143 6.77466C10.6143 7.07072 10.5022 7.32666 10.2781 7.54248C10.0567 7.75553 9.73991 7.91878 9.32764 8.03223C8.91536 8.14567 8.42977 8.20239 7.87085 8.20239C7.31193 8.20239 6.82495 8.14567 6.40991 8.03223C5.99487 7.91878 5.67529 7.75553 5.45117 7.54248C5.22705 7.32666 5.11499 7.07072 5.11499 6.77466C5.11499 6.47306 5.22705 6.21297 5.45117 5.99438C5.67529 5.7758 5.99487 5.6084 6.40991 5.49219C6.82495 5.37598 7.31193 5.31787 7.87085 5.31787ZM7.87085 6.13135C7.51392 6.13135 7.21232 6.15625 6.96606 6.20605C6.71981 6.25309 6.53304 6.32503 6.40576 6.42188C6.27848 6.51595 6.21484 6.63354 6.21484 6.77466C6.21484 6.91024 6.27848 7.02507 6.40576 7.11914C6.53304 7.21322 6.71981 7.28516 6.96606 7.33496C7.21232 7.382 7.51392 7.40552 7.87085 7.40552C8.22502 7.40552 8.52523 7.382 8.77148 7.33496C9.01774 7.28516 9.20451 7.21322 9.33179 7.11914C9.45907 7.02507 9.52271 6.91024 9.52271 6.77466C9.52271 6.63354 9.45907 6.51595 9.33179 6.42188C9.20451 6.32503 9.01774 6.25309 8.77148 6.20605C8.52523 6.15625 8.22502 6.13135 7.87085 6.13135Z" fill="#262626"/>
</svg>
