<svg width="20" height="20" viewBox="0 0 20 20" fill="none" xmlns="http://www.w3.org/2000/svg">
<path d="M9.05085 2.80252C9.47335 2.04502 9.68419 1.66669 10 1.66669C10.3159 1.66669 10.5267 2.04502 10.9492 2.80252L11.0575 2.99835C11.1784 3.21419 11.2384 3.32169 11.3317 3.39252C11.425 3.46335 11.5417 3.49002 11.775 3.54252L11.9867 3.59085C12.8067 3.77585 13.2167 3.86919 13.3142 4.18252C13.4117 4.49585 13.1325 4.82335 12.5734 5.47669L12.4284 5.64585C12.27 5.83169 12.1909 5.92419 12.155 6.03919C12.1192 6.15419 12.1309 6.27835 12.155 6.52585L12.1767 6.75085C12.2617 7.62335 12.3034 8.05919 12.0484 8.25335C11.7934 8.44752 11.4092 8.27002 10.6417 7.91669L10.4425 7.82502C10.225 7.72502 10.1159 7.67502 10 7.67502C9.88419 7.67502 9.77502 7.72502 9.55752 7.82502L9.35835 7.91669C8.59169 8.27085 8.20669 8.44752 7.95169 8.25335C7.69669 8.05919 7.73835 7.62335 7.82335 6.75169L7.84502 6.52585C7.86919 6.27835 7.88085 6.15419 7.84502 6.03919C7.80919 5.92419 7.73002 5.83085 7.57169 5.64585L7.42669 5.47669C6.86835 4.82335 6.58835 4.49585 6.68585 4.18252C6.78335 3.86919 7.19335 3.77585 8.01335 3.59085L8.22502 3.54252C8.45835 3.49002 8.57502 3.46335 8.66835 3.39252C8.76169 3.32169 8.82169 3.21419 8.94169 2.99835L9.05085 2.80252ZM16.1917 6.40169C16.4034 6.02252 16.5084 5.83335 16.6667 5.83335C16.825 5.83335 16.93 6.02252 17.1417 6.40169L17.1959 6.49919C17.2559 6.60752 17.2859 6.66085 17.3325 6.69669C17.3792 6.73252 17.4375 6.74502 17.5542 6.77169L17.66 6.79502C18.07 6.88835 18.275 6.93419 18.3234 7.09169C18.3717 7.24919 18.2325 7.41169 17.9534 7.73835L17.8809 7.82252C17.8017 7.91585 17.7617 7.96252 17.7442 8.02002C17.7267 8.07752 17.7325 8.13919 17.7442 8.26335L17.755 8.37585C17.7967 8.81169 17.8184 9.03002 17.6909 9.12669C17.5634 9.22335 17.3717 9.13502 16.9875 8.95835L16.8875 8.91252C16.7792 8.86252 16.7242 8.83752 16.6667 8.83752C16.6084 8.83752 16.5542 8.86252 16.445 8.91252L16.3459 8.95835C15.9625 9.13502 15.7709 9.22335 15.6425 9.12669C15.515 9.03002 15.5359 8.81169 15.5784 8.37585L15.5892 8.26335C15.6009 8.13835 15.6075 8.07669 15.5892 8.02002C15.5717 7.96169 15.5317 7.91585 15.4525 7.82252L15.38 7.73835C15.1009 7.41169 14.9609 7.24835 15.01 7.09169C15.0592 6.93502 15.2634 6.88835 15.6734 6.79502L15.7792 6.77169C15.8959 6.74502 15.9542 6.73169 16.0009 6.69669C16.0475 6.66085 16.0775 6.60669 16.1375 6.49919L16.1917 6.40169ZM2.85835 6.40169C3.07085 6.02252 3.17502 5.83335 3.33335 5.83335C3.49169 5.83335 3.59669 6.02252 3.80835 6.40169L3.86252 6.49919C3.92252 6.60752 3.95252 6.66085 3.99919 6.69669C4.04585 6.73252 4.10419 6.74502 4.22085 6.77169L4.32669 6.79502C4.73669 6.88835 4.94169 6.93419 4.99085 7.09169C5.03919 7.24835 4.89919 7.41169 4.62002 7.73835L4.54752 7.82252C4.46835 7.91585 4.42835 7.96252 4.41085 8.02002C4.39335 8.07752 4.39919 8.13919 4.41085 8.26335L4.42169 8.37585C4.46335 8.81169 4.48502 9.03002 4.35752 9.12669C4.23002 9.22335 4.03752 9.13502 3.65419 8.95835L3.55419 8.91252C3.44585 8.86252 3.39085 8.83752 3.33335 8.83752C3.27502 8.83752 3.22085 8.86252 3.11169 8.91252L3.01252 8.95835C2.62919 9.13502 2.43752 9.22335 2.30919 9.12669C2.18169 9.03002 2.20252 8.81169 2.24502 8.37585L2.25585 8.26335C2.26752 8.13835 2.27419 8.07669 2.25585 8.02002C2.23835 7.96169 2.19835 7.91585 2.11919 7.82252L2.04669 7.73835C1.76752 7.41169 1.62752 7.24835 1.67585 7.09169C1.72502 6.93419 1.93002 6.88835 2.34002 6.79502L2.44585 6.77169C2.56252 6.74502 2.62085 6.73169 2.66752 6.69669C2.71419 6.66085 2.74419 6.60669 2.80419 6.49919L2.85835 6.40169Z" stroke="white" stroke-width="1.2"/>
<path d="M4.16669 16.99H6.05002C6.89169 16.99 7.74419 17.0783 8.56335 17.2467C10.026 17.5462 11.5306 17.5795 13.005 17.345C13.7284 17.2283 14.4384 17.0492 15.0817 16.7392C15.6617 16.4583 16.3725 16.0642 16.85 15.6217C17.3267 15.18 17.8234 14.4575 18.175 13.8925C18.4784 13.4075 18.3317 12.8133 17.8534 12.4525C17.5844 12.2574 17.2606 12.1523 16.9284 12.1523C16.5961 12.1523 16.2723 12.2574 16.0034 12.4525L14.4975 13.59C13.9142 14.0317 13.2767 14.4375 12.5175 14.5583C12.4259 14.5728 12.33 14.5858 12.23 14.5975M12.23 14.5975L12.1384 14.6075M12.23 14.5975C12.3634 14.5614 12.4857 14.4926 12.5859 14.3975C12.7116 14.289 12.8144 14.1564 12.8879 14.0074C12.9615 13.8585 13.0045 13.6964 13.0143 13.5305C13.0241 13.3647 13.0005 13.1986 12.9449 13.0421C12.8894 12.8855 12.803 12.7417 12.6909 12.6192C12.5823 12.4986 12.4558 12.3955 12.3159 12.3133C9.98502 10.9225 6.35752 11.9817 4.16669 13.5358M12.23 14.5975C12.1999 14.6042 12.1692 14.6076 12.1384 14.6075M12.1384 14.6075C11.6358 14.6579 11.1295 14.659 10.6267 14.6108" stroke="white" stroke-width="1.2" stroke-linecap="round"/>
<path d="M4.16669 12.9167C4.16669 12.2263 3.60704 11.6667 2.91669 11.6667C2.22633 11.6667 1.66669 12.2263 1.66669 12.9167V17.0834C1.66669 17.7737 2.22633 18.3334 2.91669 18.3334C3.60704 18.3334 4.16669 17.7737 4.16669 17.0834V12.9167Z" stroke="white" stroke-width="1.2"/>
</svg>
