<svg width="18" height="18" viewBox="0 0 18 18" fill="none" xmlns="http://www.w3.org/2000/svg">
<path d="M16.44 4.965C16.3639 4.78174 16.2183 4.63611 16.035 4.56C15.9448 4.52157 15.848 4.50118 15.75 4.5H12C11.8011 4.5 11.6103 4.57902 11.4697 4.71967C11.329 4.86032 11.25 5.05109 11.25 5.25C11.25 5.44891 11.329 5.63968 11.4697 5.78033C11.6103 5.92098 11.8011 6 12 6H13.9425L9.75002 10.1925L7.28252 7.7175C7.21279 7.6472 7.12984 7.59141 7.03845 7.55333C6.94705 7.51526 6.84902 7.49565 6.75002 7.49565C6.65101 7.49565 6.55298 7.51526 6.46158 7.55333C6.37019 7.59141 6.28724 7.6472 6.21752 7.7175L1.71752 12.2175C1.64722 12.2872 1.59142 12.3702 1.55335 12.4616C1.51527 12.553 1.49567 12.651 1.49567 12.75C1.49567 12.849 1.51527 12.947 1.55335 13.0384C1.59142 13.1298 1.64722 13.2128 1.71752 13.2825C1.78724 13.3528 1.87019 13.4086 1.96158 13.4467C2.05298 13.4847 2.15101 13.5043 2.25002 13.5043C2.34902 13.5043 2.44705 13.4847 2.53845 13.4467C2.62984 13.4086 2.71279 13.3528 2.78252 13.2825L6.75002 9.3075L9.21752 11.7825C9.28724 11.8528 9.37019 11.9086 9.46158 11.9467C9.55298 11.9847 9.65101 12.0043 9.75002 12.0043C9.84902 12.0043 9.94705 11.9847 10.0384 11.9467C10.1298 11.9086 10.2128 11.8528 10.2825 11.7825L15 7.0575V9C15 9.19891 15.079 9.38968 15.2197 9.53033C15.3603 9.67098 15.5511 9.75 15.75 9.75C15.9489 9.75 16.1397 9.67098 16.2803 9.53033C16.421 9.38968 16.5 9.19891 16.5 9V5.25C16.4988 5.15199 16.4784 5.05517 16.44 4.965Z" fill="#262626"/>
</svg>
