<svg width="20" height="20" viewBox="0 0 20 20" fill="none" xmlns="http://www.w3.org/2000/svg">
<path d="M2.72988e-09 4.375C2.72988e-09 3.87772 0.197544 3.40081 0.549175 3.04917C0.900806 2.69754 1.37772 2.5 1.875 2.5H13.125C13.6223 2.5 14.0992 2.69754 14.4508 3.04917C14.8025 3.40081 15 3.87772 15 4.375V6.25H16.275C16.5559 6.25025 16.8332 6.31362 17.0863 6.43543C17.3395 6.55724 17.562 6.73438 17.7375 6.95375L19.5887 9.26625C19.8551 9.59898 20.0002 10.0125 20 10.4388V13.125C20 13.6223 19.8025 14.0992 19.4508 14.4508C19.0992 14.8025 18.6223 15 18.125 15H17.5C17.5 15.663 17.2366 16.2989 16.7678 16.7678C16.2989 17.2366 15.663 17.5 15 17.5C14.337 17.5 13.7011 17.2366 13.2322 16.7678C12.7634 16.2989 12.5 15.663 12.5 15H6.25C6.25072 15.3332 6.18481 15.6632 6.05615 15.9706C5.92749 16.278 5.73868 16.5566 5.50081 16.79C5.26294 17.0233 4.98082 17.2068 4.67102 17.3296C4.36123 17.4523 4.03002 17.5119 3.69687 17.5048C3.36371 17.4977 3.03533 17.4241 2.73104 17.2883C2.42674 17.1525 2.15267 16.9572 1.92494 16.7139C1.6972 16.4707 1.5204 16.1843 1.40492 15.8717C1.28944 15.5592 1.23762 15.2267 1.2525 14.8938C0.88631 14.7649 0.569154 14.5255 0.344805 14.2087C0.120457 13.8919 -2.09399e-05 13.5132 2.72988e-09 13.125L2.72988e-09 4.375ZM1.6175 13.695C1.84374 13.3253 2.16221 13.0208 2.54166 12.8113C2.92111 12.6018 3.3485 12.4946 3.78189 12.5001C4.21529 12.5057 4.6398 12.6238 5.01376 12.8429C5.38772 13.0621 5.6983 13.3746 5.915 13.75H12.835C13.0544 13.37 13.37 13.0544 13.75 12.835V4.375C13.75 4.20924 13.6842 4.05027 13.5669 3.93306C13.4497 3.81585 13.2908 3.75 13.125 3.75H1.875C1.70924 3.75 1.55027 3.81585 1.43306 3.93306C1.31585 4.05027 1.25 4.20924 1.25 4.375V13.125C1.2499 13.2453 1.28452 13.3631 1.34971 13.4642C1.4149 13.5653 1.50788 13.6454 1.6175 13.695ZM15 12.5C15.4388 12.5 15.8699 12.6155 16.25 12.835C16.63 13.0544 16.9456 13.37 17.165 13.75H18.125C18.2908 13.75 18.4497 13.6842 18.5669 13.5669C18.6842 13.4497 18.75 13.2908 18.75 13.125V10.4375C18.7497 10.2957 18.7013 10.1581 18.6125 10.0475L16.7625 7.735C16.704 7.6618 16.6299 7.60268 16.5455 7.562C16.4611 7.52132 16.3687 7.50013 16.275 7.5H15V12.5ZM3.75 13.75C3.41848 13.75 3.10054 13.8817 2.86612 14.1161C2.6317 14.3505 2.5 14.6685 2.5 15C2.5 15.3315 2.6317 15.6495 2.86612 15.8839C3.10054 16.1183 3.41848 16.25 3.75 16.25C4.08152 16.25 4.39946 16.1183 4.63388 15.8839C4.8683 15.6495 5 15.3315 5 15C5 14.6685 4.8683 14.3505 4.63388 14.1161C4.39946 13.8817 4.08152 13.75 3.75 13.75ZM15 13.75C14.6685 13.75 14.3505 13.8817 14.1161 14.1161C13.8817 14.3505 13.75 14.6685 13.75 15C13.75 15.3315 13.8817 15.6495 14.1161 15.8839C14.3505 16.1183 14.6685 16.25 15 16.25C15.3315 16.25 15.6495 16.1183 15.8839 15.8839C16.1183 15.6495 16.25 15.3315 16.25 15C16.25 14.6685 16.1183 14.3505 15.8839 14.1161C15.6495 13.8817 15.3315 13.75 15 13.75Z" fill="#262626"/>
<path d="M5.74585 11.0994L7.9082 9.11133C8.12126 8.90658 8.28727 8.73779 8.40625 8.60498C8.52523 8.4694 8.61515 8.33382 8.67603 8.19824C8.73966 8.0599 8.77148 7.91325 8.77148 7.7583C8.77148 7.58675 8.72998 7.43595 8.64697 7.30591C8.56396 7.1731 8.45052 7.0721 8.30664 7.00293C8.16276 6.93376 7.99951 6.89917 7.81689 6.89917C7.63151 6.89917 7.46688 6.93652 7.323 7.01123C7.18188 7.08594 7.07259 7.19523 6.99512 7.33911C6.92041 7.48022 6.88306 7.64486 6.88306 7.83301H5.69604C5.69604 7.4484 5.78459 7.11084 5.96167 6.82031C6.14152 6.52702 6.39193 6.30151 6.71289 6.1438C7.03662 5.98608 7.40877 5.90723 7.82935 5.90723C8.25269 5.90723 8.62622 5.98193 8.94995 6.13135C9.27368 6.28076 9.52409 6.48966 9.70117 6.75806C9.88102 7.02645 9.97095 7.33358 9.97095 7.67944C9.97095 7.91463 9.92529 8.14152 9.83398 8.36011C9.74544 8.57869 9.58773 8.8208 9.36084 9.08643C9.13672 9.35205 8.81714 9.67301 8.4021 10.0493L7.48486 10.9333V10.9749H10.0581V12H5.75L5.74585 11.0994Z" fill="#262626"/>
</svg>
